<mxfile host="app.diagrams.net" agent="Mozilla/5.0 (Windows NT 10.0; Win64; x64) AppleWebKit/537.36 (KHTML, like Gecko) Chrome/141.0.0.0 Safari/537.36" version="28.1.2">
  <diagram name="ER Diagram" id="NtnCjxbRL0TUgfJqGbVb">
    <mxGraphModel dx="776058" dy="368149" grid="1" gridSize="10" guides="1" tooltips="1" connect="1" arrows="1" fold="1" page="1" pageScale="1" pageWidth="850" pageHeight="1100" math="0" shadow="0">
      <root>
        <mxCell id="0" />
        <mxCell id="1" parent="0" />
        <mxCell id="xQPSnVVbP6OZfFUfeGck-93" value="" style="ellipse;whiteSpace=wrap;html=1;" vertex="1" parent="1">
          <mxGeometry x="-525" y="-105" width="115" height="55" as="geometry" />
        </mxCell>
        <mxCell id="xQPSnVVbP6OZfFUfeGck-17" value="AID CENTER MANAGER" style="rounded=1;whiteSpace=wrap;html=1;fillColor=#dae8fc;strokeColor=#6c8ebf;fontStyle=1;" vertex="1" parent="1">
          <mxGeometry x="-832" y="-360" width="140" height="60" as="geometry" />
        </mxCell>
        <mxCell id="xQPSnVVbP6OZfFUfeGck-18" value="Manager Id" style="ellipse;fillColor=#D5E8D4;strokeColor=#d6b656;fontStyle=4" vertex="1" parent="1">
          <mxGeometry x="-852" y="-440" width="80" height="40" as="geometry" />
        </mxCell>
        <mxCell id="xQPSnVVbP6OZfFUfeGck-19" value="Name" style="ellipse;fillColor=#D5E8D4;strokeColor=#d6b656;" vertex="1" parent="1">
          <mxGeometry x="-732" y="-440" width="80" height="40" as="geometry" />
        </mxCell>
        <mxCell id="xQPSnVVbP6OZfFUfeGck-20" value="District" style="ellipse;fillColor=#D5E8D4;strokeColor=#d6b656;" vertex="1" parent="1">
          <mxGeometry x="-932" y="-380" width="80" height="40" as="geometry" />
        </mxCell>
        <mxCell id="xQPSnVVbP6OZfFUfeGck-21" value="Phone NO" style="ellipse;fillColor=#D5E8D4;strokeColor=#d6b656;" vertex="1" parent="1">
          <mxGeometry x="-672" y="-380" width="80" height="40" as="geometry" />
        </mxCell>
        <mxCell id="xQPSnVVbP6OZfFUfeGck-22" value="Email" style="ellipse;fillColor=#D5E8D4;strokeColor=#d6b656;" vertex="1" parent="1">
          <mxGeometry x="-652" y="-320" width="80" height="40" as="geometry" />
        </mxCell>
        <mxCell id="xQPSnVVbP6OZfFUfeGck-23" value="DISASTER AREA" style="rounded=1;whiteSpace=wrap;html=1;fillColor=#f8cecc;strokeColor=#b85450;fontStyle=1;" vertex="1" parent="1">
          <mxGeometry x="-1300" y="-160" width="140" height="60" as="geometry" />
        </mxCell>
        <mxCell id="xQPSnVVbP6OZfFUfeGck-24" value="Disaster No" style="ellipse;fillColor=#f4cccc;strokeColor=#cc0000;fontStyle=4" vertex="1" parent="1">
          <mxGeometry x="-1360" y="-240" width="80" height="40" as="geometry" />
        </mxCell>
        <mxCell id="xQPSnVVbP6OZfFUfeGck-25" value="District" style="ellipse;fillColor=#f4cccc;strokeColor=#cc0000;" vertex="1" parent="1">
          <mxGeometry x="-1240" y="-230" width="80" height="40" as="geometry" />
        </mxCell>
        <mxCell id="xQPSnVVbP6OZfFUfeGck-26" value="Aid center ID" style="ellipse;fillColor=#f4cccc;strokeColor=#cc0000;" vertex="1" parent="1">
          <mxGeometry x="-1430" y="-190" width="80" height="40" as="geometry" />
        </mxCell>
        <mxCell id="xQPSnVVbP6OZfFUfeGck-29" value="ADMIN" style="rounded=1;whiteSpace=wrap;html=1;fillColor=#d5e8d4;strokeColor=#82b366;fontStyle=1;" vertex="1" parent="1">
          <mxGeometry x="-912" y="-140" width="140" height="60" as="geometry" />
        </mxCell>
        <mxCell id="xQPSnVVbP6OZfFUfeGck-30" value="Admin Id" style="ellipse;fillColor=#d9ead3;strokeColor=#6aa84f;fontStyle=4" vertex="1" parent="1">
          <mxGeometry x="-980" y="-190" width="80" height="40" as="geometry" />
        </mxCell>
        <mxCell id="xQPSnVVbP6OZfFUfeGck-31" value="Email" style="ellipse;fillColor=#d9ead3;strokeColor=#6aa84f;" vertex="1" parent="1">
          <mxGeometry x="-802" y="-210" width="80" height="40" as="geometry" />
        </mxCell>
        <mxCell id="xQPSnVVbP6OZfFUfeGck-32" value="Name" style="ellipse;fillColor=#d9ead3;strokeColor=#6aa84f;" vertex="1" parent="1">
          <mxGeometry x="-1020" y="-100" width="80" height="40" as="geometry" />
        </mxCell>
        <mxCell id="xQPSnVVbP6OZfFUfeGck-33" value="phone NO" style="ellipse;fillColor=#d9ead3;strokeColor=#6aa84f;" vertex="1" parent="1">
          <mxGeometry x="-732" y="-90" width="80" height="40" as="geometry" />
        </mxCell>
        <mxCell id="xQPSnVVbP6OZfFUfeGck-35" value="AID CENTER" style="rounded=1;whiteSpace=wrap;html=1;fillColor=#fff2cc;strokeColor=#d6b656;fontStyle=1;" vertex="1" parent="1">
          <mxGeometry x="-552" y="-190" width="140" height="60" as="geometry" />
        </mxCell>
        <mxCell id="xQPSnVVbP6OZfFUfeGck-36" value="Center_ID" style="ellipse;fillColor=#fff2cc;strokeColor=#d6b656;fontStyle=4" vertex="1" parent="1">
          <mxGeometry x="-505" y="-270" width="80" height="40" as="geometry" />
        </mxCell>
        <mxCell id="xQPSnVVbP6OZfFUfeGck-37" value="District" style="ellipse;fillColor=#fff2cc;strokeColor=#d6b656;" vertex="1" parent="1">
          <mxGeometry x="-360" y="-230" width="80" height="40" as="geometry" />
        </mxCell>
        <mxCell id="xQPSnVVbP6OZfFUfeGck-39" value="Location" style="ellipse;fillColor=#fff2cc;strokeColor=#000000;" vertex="1" parent="1">
          <mxGeometry x="-510" y="-100" width="80" height="40" as="geometry" />
        </mxCell>
        <mxCell id="xQPSnVVbP6OZfFUfeGck-41" value="INVENTRY" style="rounded=1;whiteSpace=wrap;html=1;fillColor=#e1d5e7;strokeColor=#9673a6;fontStyle=1;" vertex="1" parent="1">
          <mxGeometry x="-1032" y="80" width="140" height="60" as="geometry" />
        </mxCell>
        <mxCell id="xQPSnVVbP6OZfFUfeGck-43" value="Item category" style="ellipse;fillColor=#ead1dc;strokeColor=#a64d79;" vertex="1" parent="1">
          <mxGeometry x="-1192" y="130" width="80" height="40" as="geometry" />
        </mxCell>
        <mxCell id="xQPSnVVbP6OZfFUfeGck-44" value="Item ID" style="ellipse;fillColor=#ead1dc;strokeColor=#a64d79;fontStyle=4" vertex="1" parent="1">
          <mxGeometry x="-1150" y="60" width="80" height="40" as="geometry" />
        </mxCell>
        <mxCell id="xQPSnVVbP6OZfFUfeGck-45" value="quantity" style="ellipse;fillColor=#ead1dc;strokeColor=#a64d79;" vertex="1" parent="1">
          <mxGeometry x="-1092" y="160" width="80" height="40" as="geometry" />
        </mxCell>
        <mxCell id="xQPSnVVbP6OZfFUfeGck-47" value="DONATION" style="rounded=1;whiteSpace=wrap;html=1;fillColor=#f5f5f5;strokeColor=#999999;fontStyle=1;" vertex="1" parent="1">
          <mxGeometry x="-630" y="90" width="140" height="60" as="geometry" />
        </mxCell>
        <mxCell id="xQPSnVVbP6OZfFUfeGck-48" value="Item ID" style="ellipse;fillColor=#eeeeee;strokeColor=#999999;fontStyle=4" vertex="1" parent="1">
          <mxGeometry x="-752" y="90" width="80" height="40" as="geometry" />
        </mxCell>
        <mxCell id="xQPSnVVbP6OZfFUfeGck-49" value="Volunteer Name" style="ellipse;fillColor=#eeeeee;strokeColor=#999999;" vertex="1" parent="1">
          <mxGeometry x="-450" y="140" width="100" height="50" as="geometry" />
        </mxCell>
        <mxCell id="xQPSnVVbP6OZfFUfeGck-51" value="Item category" style="ellipse;fillColor=#eeeeee;strokeColor=#999999;" vertex="1" parent="1">
          <mxGeometry x="-712" y="180" width="80" height="40" as="geometry" />
        </mxCell>
        <mxCell id="xQPSnVVbP6OZfFUfeGck-52" value="Volunteer phone No" style="ellipse;fillColor=#eeeeee;strokeColor=#999999;" vertex="1" parent="1">
          <mxGeometry x="-580" y="190" width="120" height="60" as="geometry" />
        </mxCell>
        <mxCell id="xQPSnVVbP6OZfFUfeGck-53" value="Manages" style="endArrow=block;strokeColor=#6c8ebf;strokeWidth=2;" edge="1" parent="1" source="xQPSnVVbP6OZfFUfeGck-17" target="xQPSnVVbP6OZfFUfeGck-23" />
        <mxCell id="xQPSnVVbP6OZfFUfeGck-54" value="Owns" style="endArrow=block;strokeColor=#6c8ebf;strokeWidth=2;" edge="1" parent="1" source="xQPSnVVbP6OZfFUfeGck-17" target="xQPSnVVbP6OZfFUfeGck-29" />
        <mxCell id="xQPSnVVbP6OZfFUfeGck-55" value="Has" style="endArrow=block;strokeColor=#6c8ebf;strokeWidth=2;" edge="1" parent="1" source="xQPSnVVbP6OZfFUfeGck-17" target="xQPSnVVbP6OZfFUfeGck-35" />
        <mxCell id="xQPSnVVbP6OZfFUfeGck-56" value="Buys From" style="endArrow=block;strokeColor=#6c8ebf;strokeWidth=2;" edge="1" parent="1" source="xQPSnVVbP6OZfFUfeGck-17" target="xQPSnVVbP6OZfFUfeGck-41" />
        <mxCell id="xQPSnVVbP6OZfFUfeGck-57" value="Serves" style="endArrow=block;strokeColor=#6c8ebf;strokeWidth=2;" edge="1" parent="1" source="xQPSnVVbP6OZfFUfeGck-17" target="xQPSnVVbP6OZfFUfeGck-47" />
        <mxCell id="xQPSnVVbP6OZfFUfeGck-64" value="" style="endArrow=none;html=1;rounded=0;entryX=0.047;entryY=-0.005;entryDx=0;entryDy=0;entryPerimeter=0;exitX=1;exitY=0.5;exitDx=0;exitDy=0;" edge="1" parent="1" source="xQPSnVVbP6OZfFUfeGck-26" target="xQPSnVVbP6OZfFUfeGck-23">
          <mxGeometry width="50" height="50" relative="1" as="geometry">
            <mxPoint x="-1350" y="-165" as="sourcePoint" />
            <mxPoint x="-1300" y="-215" as="targetPoint" />
          </mxGeometry>
        </mxCell>
        <mxCell id="xQPSnVVbP6OZfFUfeGck-65" value="" style="endArrow=none;html=1;rounded=0;entryX=0.214;entryY=0;entryDx=0;entryDy=0;entryPerimeter=0;exitX=0.608;exitY=1.003;exitDx=0;exitDy=0;exitPerimeter=0;" edge="1" parent="1" source="xQPSnVVbP6OZfFUfeGck-24" target="xQPSnVVbP6OZfFUfeGck-23">
          <mxGeometry width="50" height="50" relative="1" as="geometry">
            <mxPoint x="-1310" y="-210" as="sourcePoint" />
            <mxPoint x="-1253" y="-200" as="targetPoint" />
          </mxGeometry>
        </mxCell>
        <mxCell id="xQPSnVVbP6OZfFUfeGck-66" value="" style="endArrow=none;html=1;rounded=0;entryX=0.5;entryY=0;entryDx=0;entryDy=0;exitX=0.388;exitY=0.943;exitDx=0;exitDy=0;exitPerimeter=0;" edge="1" parent="1" source="xQPSnVVbP6OZfFUfeGck-25" target="xQPSnVVbP6OZfFUfeGck-23">
          <mxGeometry width="50" height="50" relative="1" as="geometry">
            <mxPoint x="-1240" y="-180" as="sourcePoint" />
            <mxPoint x="-1183" y="-170" as="targetPoint" />
          </mxGeometry>
        </mxCell>
        <mxCell id="xQPSnVVbP6OZfFUfeGck-67" value="" style="endArrow=none;html=1;rounded=0;exitX=1;exitY=1;exitDx=0;exitDy=0;" edge="1" parent="1" source="xQPSnVVbP6OZfFUfeGck-30">
          <mxGeometry width="50" height="50" relative="1" as="geometry">
            <mxPoint x="-900" y="-150" as="sourcePoint" />
            <mxPoint x="-900" y="-140" as="targetPoint" />
          </mxGeometry>
        </mxCell>
        <mxCell id="xQPSnVVbP6OZfFUfeGck-68" value="" style="endArrow=none;html=1;rounded=0;entryX=0.75;entryY=0;entryDx=0;entryDy=0;exitX=0;exitY=1;exitDx=0;exitDy=0;" edge="1" parent="1" source="xQPSnVVbP6OZfFUfeGck-31" target="xQPSnVVbP6OZfFUfeGck-29">
          <mxGeometry width="50" height="50" relative="1" as="geometry">
            <mxPoint x="-780" y="-170" as="sourcePoint" />
            <mxPoint x="-723" y="-160" as="targetPoint" />
          </mxGeometry>
        </mxCell>
        <mxCell id="xQPSnVVbP6OZfFUfeGck-69" value="" style="endArrow=none;html=1;rounded=0;entryX=0;entryY=0;entryDx=0;entryDy=0;exitX=1;exitY=0.75;exitDx=0;exitDy=0;" edge="1" parent="1" source="xQPSnVVbP6OZfFUfeGck-29" target="xQPSnVVbP6OZfFUfeGck-33">
          <mxGeometry width="50" height="50" relative="1" as="geometry">
            <mxPoint x="-740" y="-100" as="sourcePoint" />
            <mxPoint x="-683" y="-90" as="targetPoint" />
          </mxGeometry>
        </mxCell>
        <mxCell id="xQPSnVVbP6OZfFUfeGck-71" value="" style="endArrow=none;html=1;rounded=0;exitX=1;exitY=0.5;exitDx=0;exitDy=0;" edge="1" parent="1" source="xQPSnVVbP6OZfFUfeGck-32">
          <mxGeometry width="50" height="50" relative="1" as="geometry">
            <mxPoint x="-920" y="-70" as="sourcePoint" />
            <mxPoint x="-910" y="-90" as="targetPoint" />
          </mxGeometry>
        </mxCell>
        <mxCell id="xQPSnVVbP6OZfFUfeGck-72" value="" style="endArrow=none;html=1;rounded=0;entryX=0.5;entryY=0;entryDx=0;entryDy=0;exitX=1;exitY=0.5;exitDx=0;exitDy=0;" edge="1" parent="1" target="xQPSnVVbP6OZfFUfeGck-35">
          <mxGeometry width="50" height="50" relative="1" as="geometry">
            <mxPoint x="-480" y="-230" as="sourcePoint" />
            <mxPoint x="-423" y="-220" as="targetPoint" />
          </mxGeometry>
        </mxCell>
        <mxCell id="xQPSnVVbP6OZfFUfeGck-73" value="" style="endArrow=none;html=1;rounded=0;entryX=0;entryY=1;entryDx=0;entryDy=0;exitX=0.931;exitY=0.015;exitDx=0;exitDy=0;exitPerimeter=0;" edge="1" parent="1" source="xQPSnVVbP6OZfFUfeGck-35" target="xQPSnVVbP6OZfFUfeGck-37">
          <mxGeometry width="50" height="50" relative="1" as="geometry">
            <mxPoint x="-390" y="-230" as="sourcePoint" />
            <mxPoint x="-333" y="-220" as="targetPoint" />
          </mxGeometry>
        </mxCell>
        <mxCell id="xQPSnVVbP6OZfFUfeGck-76" value="" style="endArrow=none;html=1;rounded=0;entryX=0.5;entryY=0;entryDx=0;entryDy=0;exitX=0.5;exitY=1;exitDx=0;exitDy=0;" edge="1" parent="1" source="xQPSnVVbP6OZfFUfeGck-35" target="xQPSnVVbP6OZfFUfeGck-39">
          <mxGeometry width="50" height="50" relative="1" as="geometry">
            <mxPoint x="-470" y="-120" as="sourcePoint" />
            <mxPoint x="-413" y="-110" as="targetPoint" />
          </mxGeometry>
        </mxCell>
        <mxCell id="xQPSnVVbP6OZfFUfeGck-78" value="" style="endArrow=none;html=1;rounded=0;exitX=1;exitY=0.75;exitDx=0;exitDy=0;" edge="1" parent="1" source="xQPSnVVbP6OZfFUfeGck-47">
          <mxGeometry width="50" height="50" relative="1" as="geometry">
            <mxPoint x="-480" y="140" as="sourcePoint" />
            <mxPoint x="-440" y="150" as="targetPoint" />
          </mxGeometry>
        </mxCell>
        <mxCell id="xQPSnVVbP6OZfFUfeGck-79" value="" style="endArrow=none;html=1;rounded=0;entryX=0.5;entryY=0;entryDx=0;entryDy=0;exitX=0.5;exitY=1;exitDx=0;exitDy=0;" edge="1" parent="1" source="xQPSnVVbP6OZfFUfeGck-47" target="xQPSnVVbP6OZfFUfeGck-52">
          <mxGeometry width="50" height="50" relative="1" as="geometry">
            <mxPoint x="-560" y="160" as="sourcePoint" />
            <mxPoint x="-503" y="170" as="targetPoint" />
          </mxGeometry>
        </mxCell>
        <mxCell id="xQPSnVVbP6OZfFUfeGck-80" value="" style="endArrow=none;html=1;rounded=0;entryX=0.746;entryY=0.117;entryDx=0;entryDy=0;entryPerimeter=0;" edge="1" parent="1" target="xQPSnVVbP6OZfFUfeGck-51">
          <mxGeometry width="50" height="50" relative="1" as="geometry">
            <mxPoint x="-630" y="150" as="sourcePoint" />
            <mxPoint x="-573" y="160" as="targetPoint" />
          </mxGeometry>
        </mxCell>
        <mxCell id="xQPSnVVbP6OZfFUfeGck-81" value="" style="endArrow=none;html=1;rounded=0;exitX=1;exitY=0.5;exitDx=0;exitDy=0;" edge="1" parent="1" source="xQPSnVVbP6OZfFUfeGck-48" target="xQPSnVVbP6OZfFUfeGck-47">
          <mxGeometry width="50" height="50" relative="1" as="geometry">
            <mxPoint x="-660" y="120" as="sourcePoint" />
            <mxPoint x="-603" y="130" as="targetPoint" />
          </mxGeometry>
        </mxCell>
        <mxCell id="xQPSnVVbP6OZfFUfeGck-83" value="" style="endArrow=none;html=1;rounded=0;entryX=0.25;entryY=0;entryDx=0;entryDy=0;exitX=1;exitY=0.5;exitDx=0;exitDy=0;" edge="1" parent="1" target="xQPSnVVbP6OZfFUfeGck-17">
          <mxGeometry width="50" height="50" relative="1" as="geometry">
            <mxPoint x="-810" y="-400" as="sourcePoint" />
            <mxPoint x="-753" y="-390" as="targetPoint" />
          </mxGeometry>
        </mxCell>
        <mxCell id="xQPSnVVbP6OZfFUfeGck-84" value="" style="endArrow=none;html=1;rounded=0;entryX=0.75;entryY=0;entryDx=0;entryDy=0;" edge="1" parent="1" target="xQPSnVVbP6OZfFUfeGck-17">
          <mxGeometry width="50" height="50" relative="1" as="geometry">
            <mxPoint x="-710" y="-400" as="sourcePoint" />
            <mxPoint x="-653" y="-400" as="targetPoint" />
          </mxGeometry>
        </mxCell>
        <mxCell id="xQPSnVVbP6OZfFUfeGck-85" value="" style="endArrow=none;html=1;rounded=0;entryX=0;entryY=1;entryDx=0;entryDy=0;exitX=1;exitY=0.25;exitDx=0;exitDy=0;" edge="1" parent="1" source="xQPSnVVbP6OZfFUfeGck-17" target="xQPSnVVbP6OZfFUfeGck-21">
          <mxGeometry width="50" height="50" relative="1" as="geometry">
            <mxPoint x="-680" y="-360" as="sourcePoint" />
            <mxPoint x="-623" y="-350" as="targetPoint" />
          </mxGeometry>
        </mxCell>
        <mxCell id="xQPSnVVbP6OZfFUfeGck-86" value="" style="endArrow=none;html=1;rounded=0;exitX=0.943;exitY=1;exitDx=0;exitDy=0;exitPerimeter=0;entryX=0;entryY=0.5;entryDx=0;entryDy=0;" edge="1" parent="1" source="xQPSnVVbP6OZfFUfeGck-17" target="xQPSnVVbP6OZfFUfeGck-22">
          <mxGeometry width="50" height="50" relative="1" as="geometry">
            <mxPoint x="-690" y="-300" as="sourcePoint" />
            <mxPoint x="-650" y="-290" as="targetPoint" />
          </mxGeometry>
        </mxCell>
        <mxCell id="xQPSnVVbP6OZfFUfeGck-87" value="" style="endArrow=none;html=1;rounded=0;entryX=0;entryY=0.5;entryDx=0;entryDy=0;exitX=1;exitY=1;exitDx=0;exitDy=0;" edge="1" parent="1" source="xQPSnVVbP6OZfFUfeGck-20" target="xQPSnVVbP6OZfFUfeGck-17">
          <mxGeometry width="50" height="50" relative="1" as="geometry">
            <mxPoint x="-850" y="-340" as="sourcePoint" />
            <mxPoint x="-793" y="-330" as="targetPoint" />
          </mxGeometry>
        </mxCell>
        <mxCell id="xQPSnVVbP6OZfFUfeGck-88" value="" style="endArrow=none;html=1;rounded=0;entryX=0;entryY=0.5;entryDx=0;entryDy=0;exitX=1;exitY=1;exitDx=0;exitDy=0;" edge="1" parent="1" source="xQPSnVVbP6OZfFUfeGck-44" target="xQPSnVVbP6OZfFUfeGck-41">
          <mxGeometry width="50" height="50" relative="1" as="geometry">
            <mxPoint x="-1070" y="150" as="sourcePoint" />
            <mxPoint x="-1013" y="160" as="targetPoint" />
          </mxGeometry>
        </mxCell>
        <mxCell id="xQPSnVVbP6OZfFUfeGck-89" value="" style="endArrow=none;html=1;rounded=0;entryX=0;entryY=0.75;entryDx=0;entryDy=0;exitX=1;exitY=0.5;exitDx=0;exitDy=0;" edge="1" parent="1" source="xQPSnVVbP6OZfFUfeGck-43" target="xQPSnVVbP6OZfFUfeGck-41">
          <mxGeometry width="50" height="50" relative="1" as="geometry">
            <mxPoint x="-1100" y="140" as="sourcePoint" />
            <mxPoint x="-1043" y="150" as="targetPoint" />
          </mxGeometry>
        </mxCell>
        <mxCell id="xQPSnVVbP6OZfFUfeGck-90" value="" style="endArrow=none;html=1;rounded=0;entryX=0.158;entryY=1.037;entryDx=0;entryDy=0;entryPerimeter=0;exitX=1;exitY=0.5;exitDx=0;exitDy=0;" edge="1" parent="1" target="xQPSnVVbP6OZfFUfeGck-41">
          <mxGeometry width="50" height="50" relative="1" as="geometry">
            <mxPoint x="-1040" y="160" as="sourcePoint" />
            <mxPoint x="-983" y="170" as="targetPoint" />
          </mxGeometry>
        </mxCell>
        <mxCell id="xQPSnVVbP6OZfFUfeGck-94" value="quantity" style="ellipse;fillColor=#eeeeee;strokeColor=#999999;" vertex="1" parent="1">
          <mxGeometry x="-450" y="70" width="100" height="50" as="geometry" />
        </mxCell>
        <mxCell id="xQPSnVVbP6OZfFUfeGck-95" value="" style="endArrow=none;html=1;rounded=0;" edge="1" parent="1">
          <mxGeometry width="50" height="50" relative="1" as="geometry">
            <mxPoint x="-490" y="100" as="sourcePoint" />
            <mxPoint x="-450" y="90" as="targetPoint" />
          </mxGeometry>
        </mxCell>
        <mxCell id="xQPSnVVbP6OZfFUfeGck-96" value="add" style="rhombus;whiteSpace=wrap;html=1;" vertex="1" parent="1">
          <mxGeometry x="-900" y="-280" width="80" height="80" as="geometry" />
        </mxCell>
        <mxCell id="xQPSnVVbP6OZfFUfeGck-97" value="add" style="rhombus;whiteSpace=wrap;html=1;" vertex="1" parent="1">
          <mxGeometry x="-1110" y="-170" width="80" height="80" as="geometry" />
        </mxCell>
        <mxCell id="xQPSnVVbP6OZfFUfeGck-98" value="update" style="rhombus;whiteSpace=wrap;html=1;" vertex="1" parent="1">
          <mxGeometry x="-950" y="-30" width="80" height="80" as="geometry" />
        </mxCell>
        <mxCell id="xQPSnVVbP6OZfFUfeGck-99" value="update" style="rhombus;whiteSpace=wrap;html=1;" vertex="1" parent="1">
          <mxGeometry x="-700" y="-10" width="80" height="80" as="geometry" />
        </mxCell>
        <mxCell id="xQPSnVVbP6OZfFUfeGck-100" value="add" style="rhombus;whiteSpace=wrap;html=1;" vertex="1" parent="1">
          <mxGeometry x="-672" y="-220" width="80" height="80" as="geometry" />
        </mxCell>
        <mxCell id="xQPSnVVbP6OZfFUfeGck-102" value="" style="endArrow=none;html=1;rounded=0;entryX=1;entryY=0.5;entryDx=0;entryDy=0;exitX=0;exitY=0.5;exitDx=0;exitDy=0;" edge="1" parent="1" source="xQPSnVVbP6OZfFUfeGck-97" target="xQPSnVVbP6OZfFUfeGck-23">
          <mxGeometry width="50" height="50" relative="1" as="geometry">
            <mxPoint x="-1119" y="-130" as="sourcePoint" />
            <mxPoint x="-1140" y="-98" as="targetPoint" />
          </mxGeometry>
        </mxCell>
        <mxCell id="xQPSnVVbP6OZfFUfeGck-103" value="" style="endArrow=none;html=1;rounded=0;entryX=1;entryY=0.5;entryDx=0;entryDy=0;exitX=0;exitY=0.25;exitDx=0;exitDy=0;" edge="1" parent="1" source="xQPSnVVbP6OZfFUfeGck-29" target="xQPSnVVbP6OZfFUfeGck-97">
          <mxGeometry width="50" height="50" relative="1" as="geometry">
            <mxPoint x="-959" y="-120" as="sourcePoint" />
            <mxPoint x="-980" y="-88" as="targetPoint" />
          </mxGeometry>
        </mxCell>
        <mxCell id="xQPSnVVbP6OZfFUfeGck-104" value="" style="endArrow=none;html=1;rounded=0;entryX=0.5;entryY=0;entryDx=0;entryDy=0;exitX=0.25;exitY=1;exitDx=0;exitDy=0;" edge="1" parent="1" source="xQPSnVVbP6OZfFUfeGck-29" target="xQPSnVVbP6OZfFUfeGck-98">
          <mxGeometry width="50" height="50" relative="1" as="geometry">
            <mxPoint x="-859" y="-50" as="sourcePoint" />
            <mxPoint x="-880" y="-18" as="targetPoint" />
          </mxGeometry>
        </mxCell>
        <mxCell id="xQPSnVVbP6OZfFUfeGck-105" value="" style="endArrow=none;html=1;rounded=0;entryX=0.902;entryY=0.028;entryDx=0;entryDy=0;exitX=0.5;exitY=1;exitDx=0;exitDy=0;entryPerimeter=0;" edge="1" parent="1" source="xQPSnVVbP6OZfFUfeGck-98" target="xQPSnVVbP6OZfFUfeGck-41">
          <mxGeometry width="50" height="50" relative="1" as="geometry">
            <mxPoint x="-859" y="50" as="sourcePoint" />
            <mxPoint x="-880" y="82" as="targetPoint" />
          </mxGeometry>
        </mxCell>
        <mxCell id="xQPSnVVbP6OZfFUfeGck-106" value="" style="endArrow=none;html=1;rounded=0;entryX=0.5;entryY=0;entryDx=0;entryDy=0;exitX=0.5;exitY=1;exitDx=0;exitDy=0;" edge="1" parent="1" source="xQPSnVVbP6OZfFUfeGck-99">
          <mxGeometry width="50" height="50" relative="1" as="geometry">
            <mxPoint x="-589" y="60" as="sourcePoint" />
            <mxPoint x="-610" y="92" as="targetPoint" />
          </mxGeometry>
        </mxCell>
        <mxCell id="xQPSnVVbP6OZfFUfeGck-107" value="" style="endArrow=none;html=1;rounded=0;exitX=0.814;exitY=0.992;exitDx=0;exitDy=0;exitPerimeter=0;" edge="1" parent="1" source="xQPSnVVbP6OZfFUfeGck-29">
          <mxGeometry width="50" height="50" relative="1" as="geometry">
            <mxPoint x="-639" y="-30" as="sourcePoint" />
            <mxPoint x="-660" y="-10" as="targetPoint" />
          </mxGeometry>
        </mxCell>
        <mxCell id="xQPSnVVbP6OZfFUfeGck-108" value="" style="endArrow=none;html=1;rounded=0;entryX=1;entryY=0.5;entryDx=0;entryDy=0;exitX=0;exitY=0.25;exitDx=0;exitDy=0;" edge="1" parent="1" source="xQPSnVVbP6OZfFUfeGck-35" target="xQPSnVVbP6OZfFUfeGck-100">
          <mxGeometry width="50" height="50" relative="1" as="geometry">
            <mxPoint x="-559" y="-190" as="sourcePoint" />
            <mxPoint x="-580" y="-158" as="targetPoint" />
          </mxGeometry>
        </mxCell>
        <mxCell id="xQPSnVVbP6OZfFUfeGck-109" value="" style="endArrow=none;html=1;rounded=0;entryX=1;entryY=0;entryDx=0;entryDy=0;exitX=0;exitY=0.5;exitDx=0;exitDy=0;" edge="1" parent="1" source="xQPSnVVbP6OZfFUfeGck-100" target="xQPSnVVbP6OZfFUfeGck-29">
          <mxGeometry width="50" height="50" relative="1" as="geometry">
            <mxPoint x="-669" y="-150" as="sourcePoint" />
            <mxPoint x="-690" y="-118" as="targetPoint" />
          </mxGeometry>
        </mxCell>
        <mxCell id="xQPSnVVbP6OZfFUfeGck-111" value="" style="endArrow=none;html=1;rounded=0;entryX=0.5;entryY=0;entryDx=0;entryDy=0;exitX=0.25;exitY=1;exitDx=0;exitDy=0;" edge="1" parent="1" source="xQPSnVVbP6OZfFUfeGck-17" target="xQPSnVVbP6OZfFUfeGck-96">
          <mxGeometry width="50" height="50" relative="1" as="geometry">
            <mxPoint x="-789" y="-270" as="sourcePoint" />
            <mxPoint x="-810" y="-238" as="targetPoint" />
          </mxGeometry>
        </mxCell>
        <mxCell id="xQPSnVVbP6OZfFUfeGck-113" value="" style="endArrow=none;html=1;rounded=0;entryX=0.4;entryY=0.037;entryDx=0;entryDy=0;exitX=0.5;exitY=1;exitDx=0;exitDy=0;entryPerimeter=0;" edge="1" parent="1" source="xQPSnVVbP6OZfFUfeGck-96" target="xQPSnVVbP6OZfFUfeGck-29">
          <mxGeometry width="50" height="50" relative="1" as="geometry">
            <mxPoint x="-839" y="-170" as="sourcePoint" />
            <mxPoint x="-860" y="-138" as="targetPoint" />
          </mxGeometry>
        </mxCell>
        <mxCell id="xQPSnVVbP6OZfFUfeGck-114" value="LName" style="ellipse;fillColor=#D5E8D4;strokeColor=#d6b656;" vertex="1" parent="1">
          <mxGeometry x="-540" y="-450" width="80" height="40" as="geometry" />
        </mxCell>
        <mxCell id="xQPSnVVbP6OZfFUfeGck-115" value="FName" style="ellipse;fillColor=#D5E8D4;strokeColor=#d6b656;" vertex="1" parent="1">
          <mxGeometry x="-640" y="-480" width="80" height="40" as="geometry" />
        </mxCell>
        <mxCell id="xQPSnVVbP6OZfFUfeGck-116" value="" style="endArrow=none;html=1;rounded=0;entryX=0.719;entryY=-0.039;entryDx=0;entryDy=0;exitX=0;exitY=0.5;exitDx=0;exitDy=0;entryPerimeter=0;" edge="1" parent="1" source="xQPSnVVbP6OZfFUfeGck-115" target="xQPSnVVbP6OZfFUfeGck-19">
          <mxGeometry width="50" height="50" relative="1" as="geometry">
            <mxPoint x="-653" y="-470" as="sourcePoint" />
            <mxPoint x="-670" y="-430" as="targetPoint" />
          </mxGeometry>
        </mxCell>
        <mxCell id="xQPSnVVbP6OZfFUfeGck-118" value="" style="endArrow=none;html=1;rounded=0;entryX=1;entryY=0.5;entryDx=0;entryDy=0;exitX=0;exitY=0.5;exitDx=0;exitDy=0;" edge="1" parent="1" source="xQPSnVVbP6OZfFUfeGck-114" target="xQPSnVVbP6OZfFUfeGck-19">
          <mxGeometry width="50" height="50" relative="1" as="geometry">
            <mxPoint x="-573" y="-420" as="sourcePoint" />
            <mxPoint x="-590" y="-380" as="targetPoint" />
          </mxGeometry>
        </mxCell>
        <mxCell id="xQPSnVVbP6OZfFUfeGck-120" value="1" style="text;html=1;align=center;verticalAlign=middle;whiteSpace=wrap;rounded=0;" vertex="1" parent="1">
          <mxGeometry x="-1160" y="-160" width="60" height="30" as="geometry" />
        </mxCell>
        <mxCell id="xQPSnVVbP6OZfFUfeGck-121" value="M" style="text;html=1;align=center;verticalAlign=middle;whiteSpace=wrap;rounded=0;" vertex="1" parent="1">
          <mxGeometry x="-1040" y="-160" width="60" height="30" as="geometry" />
        </mxCell>
        <mxCell id="xQPSnVVbP6OZfFUfeGck-122" value="M" style="text;html=1;align=center;verticalAlign=middle;whiteSpace=wrap;rounded=0;" vertex="1" parent="1">
          <mxGeometry x="-912" y="-60" width="60" height="30" as="geometry" />
        </mxCell>
        <mxCell id="xQPSnVVbP6OZfFUfeGck-123" value="1" style="text;html=1;align=center;verticalAlign=middle;whiteSpace=wrap;rounded=0;" vertex="1" parent="1">
          <mxGeometry x="-912" y="40" width="60" height="30" as="geometry" />
        </mxCell>
        <mxCell id="xQPSnVVbP6OZfFUfeGck-124" value="M" style="text;html=1;align=center;verticalAlign=middle;whiteSpace=wrap;rounded=0;" vertex="1" parent="1">
          <mxGeometry x="-742" y="-30" width="60" height="30" as="geometry" />
        </mxCell>
        <mxCell id="xQPSnVVbP6OZfFUfeGck-125" value="1" style="text;html=1;align=center;verticalAlign=middle;whiteSpace=wrap;rounded=0;" vertex="1" parent="1">
          <mxGeometry x="-642" y="50" width="60" height="30" as="geometry" />
        </mxCell>
        <mxCell id="xQPSnVVbP6OZfFUfeGck-126" value="1" style="text;html=1;align=center;verticalAlign=middle;whiteSpace=wrap;rounded=0;" vertex="1" parent="1">
          <mxGeometry x="-600" y="-170" width="60" height="30" as="geometry" />
        </mxCell>
        <mxCell id="xQPSnVVbP6OZfFUfeGck-127" value="M" style="text;html=1;align=center;verticalAlign=middle;whiteSpace=wrap;rounded=0;" vertex="1" parent="1">
          <mxGeometry x="-722" y="-170" width="60" height="30" as="geometry" />
        </mxCell>
        <mxCell id="xQPSnVVbP6OZfFUfeGck-128" value="1" style="text;html=1;align=center;verticalAlign=middle;whiteSpace=wrap;rounded=0;" vertex="1" parent="1">
          <mxGeometry x="-842" y="-290" width="60" height="30" as="geometry" />
        </mxCell>
        <mxCell id="xQPSnVVbP6OZfFUfeGck-129" value="M" style="text;html=1;align=center;verticalAlign=middle;whiteSpace=wrap;rounded=0;" vertex="1" parent="1">
          <mxGeometry x="-870" y="-185" width="60" height="30" as="geometry" />
        </mxCell>
      </root>
    </mxGraphModel>
  </diagram>
</mxfile>
